<?xml version="1.0" standalone="no"?>
<!DOCTYPE svg PUBLIC "-//W3C//DTD SVG 20010904//EN"
 "http://www.w3.org/TR/2001/REC-SVG-20010904/DTD/svg10.dtd">
<svg version="1.0" xmlns="http://www.w3.org/2000/svg"
 width="360.000000pt" height="360.000000pt" viewBox="0 0 360.000000 360.000000"
 preserveAspectRatio="xMidYMid meet">

<g transform="translate(0.000000,360.000000) scale(0.100000,-0.100000)"
fill="#000000" stroke="none">
<path d="M1685 3269 c-165 -15 -311 -66 -403 -142 -43 -36 -51 -47 -51 -77 -1
-20 -6 -41 -13 -48 -9 -9 -8 -12 5 -12 9 0 17 -4 17 -10 0 -5 -5 -10 -11 -10
-21 0 2 -19 32 -25 l31 -7 -4 -109 -3 -109 528 0 527 0 0 114 c0 113 0 114 25
120 24 6 25 10 25 74 0 64 -2 70 -32 98 -27 23 -29 24 -10 3 35 -40 14 -43
-29 -4 -119 107 -377 166 -634 144z m125 -69 c0 -5 10 -10 22 -10 33 0 60 -28
47 -52 -5 -10 -14 -16 -20 -12 -6 4 -6 11 2 21 10 12 10 16 -2 24 -19 12 -32
7 -44 -19 -5 -12 -12 -22 -15 -22 -3 0 -10 10 -15 22 -12 26 -25 31 -44 19
-12 -8 -12 -12 -2 -25 8 -9 10 -17 5 -18 -5 0 23 -4 61 -8 41 -4 75 -2 83 4
11 8 11 4 1 -17 -7 -15 -19 -27 -28 -27 -13 0 -13 2 -3 9 20 12 -9 21 -68 21
-47 0 -73 -13 -48 -23 9 -4 8 -6 -3 -6 -9 -1 -21 11 -28 27 -10 22 -10 25 0
15 20 -20 31 -15 17 6 -7 11 -17 17 -23 14 -5 -4 1 6 14 20 14 15 35 27 48 27
13 0 23 5 23 10 0 6 5 10 10 10 6 0 10 -4 10 -10z m-35 -49 c3 -5 1 -12 -5
-16 -5 -3 -10 1 -10 9 0 18 6 21 15 7z m65 -7 c0 -8 -5 -12 -10 -9 -6 4 -8 11
-5 16 9 14 15 11 15 -7z m388 -306 l3 -58 -431 0 -430 0 0 53 c0 30 3 57 7 61
4 4 197 6 428 4 l420 -3 3 -57z"/>
<path d="M1493 2840 c0 -25 2 -35 4 -22 2 12 2 32 0 45 -2 12 -4 2 -4 -23z"/>
<path d="M1543 2840 c0 -25 2 -35 4 -22 2 12 2 32 0 45 -2 12 -4 2 -4 -23z"/>
<path d="M1613 2840 c0 -25 2 -35 4 -22 2 12 2 32 0 45 -2 12 -4 2 -4 -23z"/>
<path d="M1751 2864 c0 -11 3 -14 6 -6 3 7 2 16 -1 19 -3 4 -6 -2 -5 -13z"/>
<path d="M1873 2840 c0 -25 2 -35 4 -22 2 12 2 32 0 45 -2 12 -4 2 -4 -23z"/>
<path d="M1959 2868 c7 -10 11 -27 8 -38 -3 -11 -1 -18 4 -14 15 9 10 41 -8
55 -16 13 -17 12 -4 -3z"/>
<path d="M2093 2840 c0 -25 2 -35 4 -22 2 12 2 32 0 45 -2 12 -4 2 -4 -23z"/>
<path d="M1683 2835 c0 -22 2 -30 4 -17 2 12 2 30 0 40 -3 9 -5 -1 -4 -23z"/>
<path d="M1786 2853 c-6 -14 -5 -15 5 -6 7 7 10 15 7 18 -3 3 -9 -2 -12 -12z"/>
<path d="M2025 2837 c15 -21 30 -35 32 -33 3 3 -9 20 -27 38 l-32 33 27 -38z"/>
<path d="M1900 2837 c0 -14 5 -29 10 -32 7 -4 8 3 4 22 -9 38 -14 42 -14 10z"/>
<path d="M1752 2820 c0 -14 2 -19 5 -12 2 6 2 18 0 25 -3 6 -5 1 -5 -13z"/>
<path d="M1239 3123 c-13 -16 -12 -17 4 -4 9 7 17 15 17 17 0 8 -8 3 -21 -13z"/>
<path d="M1227 2703 c-4 -3 -7 -535 -7 -1181 0 -1107 -1 -1176 -17 -1188 -15
-11 82 -13 591 -14 550 0 608 1 602 16 -3 9 -6 546 -6 1195 l0 1179 -578 0
c-318 0 -582 -3 -585 -7z m45 -1190 c-1 -755 -6 -1171 -12 -1177 -7 -7 -10
389 -10 1167 0 935 3 1177 13 1177 9 0 11 -239 9 -1167z m958 1097 c0 -7 -150
-10 -430 -10 l-430 0 -3 -1137 -2 -1138 -3 1148 -2 1147 435 0 c283 0 435 -3
435 -10z m-791 -1165 c0 -698 -3 -1105 -9 -1105 -6 0 -10 32 -10 70 0 40 -4
70 -10 70 -6 0 -10 27 -10 60 0 33 4 60 10 60 14 0 14 1656 0 1665 -5 3 -10
31 -10 61 0 30 5 54 10 54 6 0 10 37 10 91 0 56 4 88 10 84 6 -4 10 -398 9
-1110z m364 1028 l-293 -3 -3 -853 -2 -852 -3 858 -2 857 298 -2 297 -3 -292
-2z m87 -283 c6 0 10 35 10 79 0 44 4 82 9 85 4 3 31 3 60 -1 l51 -6 0 -78 c0
-77 0 -78 28 -82 15 -2 -97 -4 -248 -4 -151 0 -263 2 -247 4 27 4 27 4 27 89
l0 84 50 0 c49 0 50 1 50 30 0 17 3 30 8 30 4 0 7 -51 7 -112 0 -99 2 -113 18
-116 15 -3 17 6 17 82 l0 86 65 0 64 0 4 -87 c3 -81 3 -77 7 42 l4 130 3 -127
c2 -74 8 -128 13 -128z m-35 -30 c4 -6 -19 -9 -62 -8 l-68 1 60 7 c33 4 61 7
62 8 1 1 5 -2 8 -8z m165 -2 c0 -5 -27 -8 -61 -8 -33 0 -58 3 -56 8 3 4 30 7
61 7 31 0 56 -3 56 -7z m-352 -5 c-15 -2 -42 -2 -60 0 -18 2 -6 4 27 4 33 0
48 -2 33 -4z m209 -130 c-2 -27 -3 -5 -3 47 0 52 1 74 3 48 2 -27 2 -69 0 -95z
m-184 2 l-2 -115 192 -3 c132 -2 107 -3 -83 -3 -151 0 -239 3 -195 6 67 5 71
7 28 8 l-53 2 0 105 0 104 58 4 c31 2 57 4 57 5 0 1 -1 -50 -2 -113z m167 5
l0 -100 -49 0 c-27 0 -56 -3 -65 -6 -14 -5 -16 7 -16 100 l0 106 65 0 65 0 0
-100z m160 -6 c0 -93 -2 -105 -16 -100 -9 3 -36 6 -60 6 l-44 0 0 100 0 100
60 0 60 0 0 -106z m-143 -91 c-3 -10 -5 -4 -5 12 0 17 2 24 5 18 2 -7 2 -21 0
-30z m-183 -178 c-1 -115 0 -125 18 -125 13 0 18 7 18 25 0 24 2 25 65 25 63
0 65 -1 65 -25 0 -18 5 -25 20 -25 15 0 20 7 20 25 0 24 3 25 60 25 57 0 60
-1 60 -24 0 -19 6 -26 28 -29 15 -2 -97 -4 -248 -4 -151 0 -263 2 -247 4 21 3
27 10 27 29 0 22 3 24 55 24 30 0 55 5 55 10 0 6 -25 10 -55 10 l-55 0 0 90 0
90 58 0 57 0 -1 -125z m166 35 l0 -90 -65 0 -65 0 0 90 0 90 65 0 65 0 0 -90z
m160 0 l0 -90 -60 0 -60 0 0 90 0 90 60 0 60 0 0 -90z m-143 -12 c-2 -13 -4
-3 -4 22 0 25 2 35 4 23 2 -13 2 -33 0 -45z m283 -134 c0 -8 -4 -13 -8 -10 -5
3 -9 -1 -9 -9 0 -8 4 -15 9 -15 4 0 8 -9 8 -20 0 -13 -7 -20 -20 -20 -17 0
-20 7 -20 38 0 21 3 42 7 45 12 13 33 7 33 -9z m-470 -106 l0 -63 -55 3 -55 4
0 59 0 59 55 0 55 0 0 -62z m170 3 c0 -33 -4 -62 -8 -65 -5 -3 -34 -2 -65 1
l-57 6 0 58 0 59 65 0 65 0 0 -59z m158 -3 l-3 -63 -34 -3 c-19 -2 -44 -1 -57
2 -22 6 -24 12 -24 66 l0 60 60 0 61 0 -3 -62z m-128 -188 c6 0 10 22 10 49
l0 49 60 4 60 3 0 -52 c0 -49 2 -52 28 -56 15 -2 -97 -4 -248 -4 -151 0 -263
2 -247 4 25 4 27 8 27 54 l0 49 44 0 c24 0 50 2 58 5 10 4 12 -7 10 -50 -4
-50 -2 -55 17 -55 19 0 21 6 21 50 l0 50 40 2 c92 4 84 8 91 -52 4 -43 7 -30
10 65 l3 120 3 -117 c2 -67 8 -118 13 -118z m-198 -155 c-3 -121 -3 -125 17
-125 20 0 21 6 21 80 l0 80 65 0 65 0 0 -80 c0 -73 2 -80 20 -80 17 0 19 8 22
78 l3 77 58 3 57 3 0 -80 c0 -79 0 -80 28 -84 15 -2 -97 -4 -248 -4 -151 0
-263 2 -247 4 27 4 27 5 27 84 l0 79 55 0 c30 0 55 5 55 10 0 6 -25 10 -55 10
l-55 0 0 35 0 35 58 0 57 0 -3 -125z m168 90 l0 -35 -65 0 -65 0 0 35 0 35 65
0 65 0 0 -35z m160 0 l0 -36 -57 3 c-57 3 -58 3 -61 36 l-3 32 60 0 61 0 0
-35z m-143 -147 c-2 -35 -3 -9 -3 57 0 66 1 94 3 63 2 -32 2 -86 0 -120z
m-180 -128 c1 -21 1 -22 -3 -3 -5 19 -13 23 -60 26 l-54 4 57 -1 c54 -1 58 -3
60 -26z m130 23 c-20 -2 -52 -2 -70 0 -17 2 0 4 38 4 39 0 53 -2 32 -4z m166
0 c-18 -2 -48 -2 -65 0 -18 2 -4 4 32 4 36 0 50 -2 33 -4z m-116 -185 c-2 -35
-3 -9 -3 57 0 66 1 94 3 63 2 -32 2 -86 0 -120z m-180 -5 c-2 -27 -3 -5 -3 47
0 52 1 74 3 48 2 -27 2 -69 0 -95z"/>
</g>
</svg>
